<svg width="500" height="469" viewBox="0 0 500 469" fill="none" xmlns="http://www.w3.org/2000/svg">
<path d="M214.053 0L214.756 80.1209L185.918 49.9029C185.918 49.9029 99.4006 63.961 51.5709 177.11C51.5709 177.11 3.7411 338.055 165.52 414.656L169.619 416.434L170.448 344.024C170.448 344.024 103.391 309.002 110.892 217.171C110.892 217.171 114.174 164.109 168.687 129.321L330.82 283.233C330.82 283.233 357.902 260.39 344.187 206.277C344.187 206.277 332.581 165.166 287.913 150.405L286.506 1.06292C286.506 1.06292 477.128 24.6092 498.933 205.929C498.933 205.929 521.442 376.71 359.663 447.691C359.663 447.691 310.073 466.493 286.687 468.072V395.5L315.35 421.502C315.35 421.502 418.047 395.674 451.807 289.551C451.807 289.551 502.918 129.549 330.351 55.0493L330.471 127.904C330.471 127.904 400.227 168.433 388.501 252.769C388.501 252.769 385.688 307.825 334.336 341.207L169.036 189.054C169.036 189.054 131.754 230.52 174.313 291.665C174.313 291.665 189.903 311.812 214.287 320.712L214.756 467.712C214.756 467.712 88.8466 457.99 20.3836 336.169C20.3836 336.169 -38.469 209.43 43.8296 101.902C43.8296 101.908 92.014 21.0841 214.053 0Z" fill="url(#paint0_linear_105_8)"/>
<defs>
<linearGradient id="paint0_linear_105_8" x1="0.0023653" y1="234.033" x2="499.998" y2="234.033" gradientUnits="userSpaceOnUse">
<stop stop-color="#589EA1"/>
<stop offset="1" stop-color="#121829"/>
</linearGradient>
</defs>
</svg>
